<svg width="1024" height="1024" viewBox="0 0 1024 1024" fill="none" xmlns="http://www.w3.org/2000/svg">
<g filter="url(#filter0_d_102_69)">
<path fill-rule="evenodd" clip-rule="evenodd" d="M924 354.627C924 344.845 924.004 335.062 923.944 325.279C923.895 317.038 923.8 308.799 923.576 300.562C923.092 282.609 922.033 264.502 918.84 246.749C915.602 228.741 910.314 211.98 901.981 195.617C893.789 179.534 883.088 164.817 870.32 152.058C857.555 139.299 842.834 128.605 826.746 120.418C810.366 112.083 793.587 106.797 775.558 103.56C757.803 100.372 739.691 99.315 721.738 98.83C713.495 98.607 705.253 98.513 697.008 98.462C687.22 98.402 677.432 98.407 667.644 98.407L553.997 98H468.997L357.361 98.407C347.554 98.407 337.747 98.402 327.94 98.462C319.678 98.513 311.42 98.607 303.161 98.83C285.167 99.315 267.014 100.373 249.217 103.565C231.164 106.801 214.36 112.085 197.958 120.414C181.835 128.602 167.083 139.297 154.291 152.058C141.501 164.816 130.78 179.53 122.573 195.61C114.217 211.981 108.919 228.752 105.673 246.77C102.477 264.516 101.418 282.617 100.931 300.562C100.709 308.8 100.613 317.039 100.563 325.279C100.503 335.063 100 347.216 100 356.999L100.003 467.089L100 552.998L100.508 665.427C100.508 675.223 100.504 685.019 100.563 694.815C100.613 703.067 100.709 711.317 100.932 719.566C101.418 737.542 102.479 755.675 105.678 773.452C108.923 791.484 114.22 808.269 122.569 824.653C130.777 840.759 141.5 855.495 154.291 868.272C167.082 881.049 181.83 891.757 197.95 899.956C214.362 908.302 231.174 913.595 249.238 916.836C267.027 920.029 285.174 921.088 303.161 921.573C311.42 921.796 319.679 921.891 327.941 921.941C337.748 922.001 347.554 921.997 357.361 921.997L470.006 922H555.217L667.644 921.996C677.432 921.996 687.22 922.001 697.008 921.941C705.253 921.891 713.495 921.796 721.738 921.573C739.698 921.087 757.816 920.027 775.579 916.832C793.597 913.591 810.368 908.3 826.739 899.959C842.831 891.761 857.554 881.051 870.32 868.272C883.086 855.497 893.786 840.763 901.978 824.66C910.316 808.268 915.604 791.475 918.844 773.431C922.034 755.661 923.092 737.535 923.577 719.566C923.8 711.316 923.895 703.066 923.944 694.815C924.005 685.019 924 675.223 924 665.427C924 665.427 923.994 554.983 923.994 552.998V466.999C923.994 465.533 924 354.627 924 354.627Z" fill="url(#paint0_linear_102_69)"/>
</g>
<mask id="mask0_102_69" style="mask-type:luminance" maskUnits="userSpaceOnUse" x="100" y="98" width="824" height="824">
<path fill-rule="evenodd" clip-rule="evenodd" d="M924 354.627C924 344.845 924.004 335.062 923.944 325.279C923.895 317.038 923.8 308.799 923.576 300.562C923.092 282.609 922.033 264.502 918.84 246.749C915.602 228.741 910.314 211.98 901.981 195.617C893.789 179.534 883.088 164.817 870.32 152.058C857.555 139.299 842.834 128.605 826.746 120.418C810.366 112.083 793.587 106.797 775.558 103.56C757.803 100.372 739.691 99.315 721.738 98.83C713.495 98.607 705.253 98.513 697.008 98.462C687.22 98.402 677.432 98.407 667.644 98.407L553.997 98H468.997L357.361 98.407C347.554 98.407 337.747 98.402 327.94 98.462C319.678 98.513 311.42 98.607 303.161 98.83C285.167 99.315 267.014 100.373 249.217 103.565C231.164 106.801 214.36 112.085 197.958 120.414C181.835 128.602 167.083 139.297 154.291 152.058C141.501 164.816 130.78 179.53 122.573 195.61C114.217 211.981 108.919 228.752 105.673 246.77C102.477 264.516 101.418 282.617 100.931 300.562C100.709 308.8 100.613 317.039 100.563 325.279C100.503 335.063 100 347.216 100 356.999L100.003 467.089L100 552.998L100.508 665.427C100.508 675.223 100.504 685.019 100.563 694.815C100.613 703.067 100.709 711.317 100.932 719.566C101.418 737.542 102.479 755.675 105.678 773.452C108.923 791.484 114.22 808.269 122.569 824.653C130.777 840.759 141.5 855.495 154.291 868.272C167.082 881.049 181.83 891.757 197.95 899.956C214.362 908.302 231.174 913.595 249.238 916.836C267.027 920.029 285.174 921.088 303.161 921.573C311.42 921.796 319.679 921.891 327.941 921.941C337.748 922.001 347.554 921.997 357.361 921.997L470.006 922H555.217L667.644 921.996C677.432 921.996 687.22 922.001 697.008 921.941C705.253 921.891 713.495 921.796 721.738 921.573C739.698 921.087 757.816 920.027 775.579 916.832C793.597 913.591 810.368 908.3 826.739 899.959C842.831 891.761 857.554 881.051 870.32 868.272C883.086 855.497 893.786 840.763 901.978 824.66C910.316 808.268 915.604 791.475 918.844 773.431C922.034 755.661 923.092 737.535 923.577 719.566C923.8 711.316 923.895 703.066 923.944 694.815C924.005 685.019 924 675.223 924 665.427C924 665.427 923.994 554.983 923.994 552.998V466.999C923.994 465.533 924 354.627 924 354.627Z" fill="white"/>
</mask>
<g mask="url(#mask0_102_69)">
<rect x="42" y="36" width="914" height="914" fill="url(#paint1_linear_102_69)"/>
<g style="transform: rotate3d(1, -1, 1, -30deg) translate(-150px, 280px) scale(0.8)">
<rect x="360" y="407" width="838" height="206" fill="black"/>
<path d="M373.021 585V435.182H404.697V558.884H468.925V585H373.021ZM494.474 627.136C490.524 627.136 486.818 626.819 483.355 626.185C479.941 625.6 477.113 624.844 474.869 623.918L481.892 600.655C485.55 601.777 488.841 602.386 491.768 602.484C494.742 602.581 497.303 601.898 499.449 600.435C501.643 598.972 503.423 596.485 504.789 592.974L506.618 588.219L466.31 472.636H499.083L522.346 555.153H523.516L546.998 472.636H579.991L536.318 597.143C534.221 603.191 531.368 608.458 527.759 612.945C524.199 617.48 519.688 620.967 514.226 623.406C508.764 625.893 502.18 627.136 494.474 627.136ZM595.938 585V472.636H626.15V492.241H627.321C629.369 485.268 632.807 480 637.635 476.44C642.464 472.831 648.023 471.027 654.314 471.027C655.875 471.027 657.558 471.125 659.362 471.32C661.166 471.515 662.751 471.783 664.117 472.124V499.776C662.654 499.337 660.63 498.947 658.045 498.606C655.461 498.264 653.095 498.094 650.949 498.094C646.365 498.094 642.269 499.094 638.66 501.093C635.099 503.044 632.271 505.775 630.174 509.286C628.126 512.798 627.101 516.845 627.101 521.43V585H595.938ZM680.229 585V472.636H711.392V585H680.229ZM695.884 458.152C691.251 458.152 687.276 456.616 683.96 453.543C680.692 450.422 679.059 446.691 679.059 442.351C679.059 438.059 680.692 434.377 683.96 431.305C687.276 428.183 691.251 426.623 695.884 426.623C700.517 426.623 704.467 428.183 707.735 431.305C711.051 434.377 712.709 438.059 712.709 442.351C712.709 446.691 711.051 450.422 707.735 453.543C704.467 456.616 700.517 458.152 695.884 458.152ZM787.124 587.195C775.615 587.195 765.715 584.756 757.424 579.879C749.182 574.954 742.842 568.126 738.404 559.396C734.015 550.667 731.82 540.62 731.82 529.257C731.82 517.748 734.039 507.652 738.477 498.972C742.964 490.242 749.329 483.439 757.57 478.562C765.812 473.636 775.615 471.173 786.978 471.173C796.781 471.173 805.364 472.953 812.728 476.513C820.092 480.074 825.92 485.072 830.212 491.51C834.503 497.947 836.869 505.507 837.308 514.188H807.9C807.071 508.579 804.876 504.068 801.316 500.654C797.805 497.192 793.196 495.46 787.49 495.46C782.662 495.46 778.444 496.777 774.835 499.411C771.275 501.995 768.495 505.775 766.495 510.749C764.496 515.724 763.496 521.747 763.496 528.818C763.496 535.987 764.471 542.083 766.422 547.107C768.422 552.13 771.226 555.958 774.835 558.592C778.444 561.225 782.662 562.542 787.49 562.542C791.05 562.542 794.245 561.81 797.073 560.347C799.951 558.884 802.316 556.763 804.169 553.983C806.071 551.154 807.315 547.765 807.9 543.815H837.308C836.82 552.398 834.479 559.957 830.285 566.492C826.14 572.978 820.409 578.05 813.094 581.708C805.779 585.366 797.122 587.195 787.124 587.195ZM889.301 587.121C882.132 587.121 875.744 585.878 870.135 583.391C864.527 580.855 860.089 577.124 856.821 572.198C853.603 567.224 851.993 561.03 851.993 553.617C851.993 547.375 853.139 542.132 855.431 537.889C857.724 533.646 860.845 530.232 864.795 527.648C868.745 525.063 873.232 523.112 878.255 521.795C883.327 520.479 888.643 519.552 894.203 519.016C900.738 518.333 906.005 517.699 910.004 517.114C914.003 516.48 916.905 515.553 918.709 514.334C920.514 513.115 921.416 511.31 921.416 508.92V508.482C921.416 503.848 919.953 500.264 917.027 497.728C914.149 495.192 910.053 493.924 904.737 493.924C899.128 493.924 894.666 495.168 891.35 497.655C888.033 500.093 885.839 503.166 884.766 506.872L855.944 504.531C857.407 497.704 860.284 491.803 864.576 486.828C868.867 481.805 874.403 477.952 881.181 475.27C888.009 472.539 895.91 471.173 904.883 471.173C911.126 471.173 917.1 471.905 922.806 473.368C928.56 474.831 933.657 477.099 938.095 480.171C942.582 483.244 946.117 487.194 948.702 492.022C951.287 496.801 952.579 502.532 952.579 509.213V585H923.025V569.418H922.147C920.343 572.93 917.929 576.027 914.905 578.709C911.882 581.342 908.248 583.415 904.005 584.927C899.762 586.39 894.861 587.121 889.301 587.121ZM898.226 565.614C902.81 565.614 906.858 564.712 910.37 562.908C913.881 561.054 916.636 558.567 918.636 555.446C920.636 552.325 921.635 548.789 921.635 544.839V532.915C920.66 533.549 919.319 534.134 917.612 534.67C915.954 535.158 914.076 535.621 911.979 536.06C909.882 536.451 907.785 536.816 905.688 537.158C903.591 537.45 901.689 537.719 899.982 537.962C896.324 538.499 893.13 539.352 890.399 540.523C887.668 541.693 885.546 543.278 884.034 545.278C882.523 547.228 881.767 549.667 881.767 552.593C881.767 556.836 883.303 560.079 886.375 562.322C889.497 564.517 893.447 565.614 898.226 565.614ZM1007.92 435.182V585H976.756V435.182H1007.92ZM1064.05 435.182V585H1032.88V435.182H1064.05ZM1108.25 627.136C1104.3 627.136 1100.59 626.819 1097.13 626.185C1093.72 625.6 1090.89 624.844 1088.64 623.918L1095.67 600.655C1099.32 601.777 1102.62 602.386 1105.54 602.484C1108.52 602.581 1111.08 601.898 1113.22 600.435C1115.42 598.972 1117.2 596.485 1118.56 592.974L1120.39 588.219L1080.09 472.636H1112.86L1136.12 555.153H1137.29L1160.77 472.636H1193.77L1150.09 597.143C1148 603.191 1145.14 608.458 1141.53 612.945C1137.97 617.48 1133.46 620.967 1128 623.406C1122.54 625.893 1115.96 627.136 1108.25 627.136Z" fill="white"/>
</g>
</g>
<defs>
<filter id="filter0_d_102_69" x="90" y="98" width="844" height="844" filterUnits="userSpaceOnUse" color-interpolation-filters="sRGB">
<feFlood flood-opacity="0" result="BackgroundImageFix"/>
<feColorMatrix in="SourceAlpha" type="matrix" values="0 0 0 0 0 0 0 0 0 0 0 0 0 0 0 0 0 0 127 0" result="hardAlpha"/>
<feOffset dy="10"/>
<feGaussianBlur stdDeviation="5"/>
<feColorMatrix type="matrix" values="0 0 0 0 0 0 0 0 0 0 0 0 0 0 0 0 0 0 0.3 0"/>
<feBlend mode="normal" in2="BackgroundImageFix" result="effect1_dropShadow_102_69"/>
<feBlend mode="normal" in="SourceGraphic" in2="effect1_dropShadow_102_69" result="shape"/>
</filter>
<linearGradient id="paint0_linear_102_69" x1="-181.14" y1="98" x2="-181.14" y2="1484.28" gradientUnits="userSpaceOnUse">
<stop stop-color="white"/>
<stop offset="0.489516" stop-color="#EFEFEF"/>
<stop offset="1" stop-color="#C0C0C0"/>
</linearGradient>
<linearGradient id="paint1_linear_102_69" x1="928.377" y1="992.826" x2="928.377" y2="134.072" gradientUnits="userSpaceOnUse">
<stop stop-color="#F6F3F3"/>
<stop offset="1" stop-color="white"/>
</linearGradient>
</defs>
</svg>
